 <svg  version="1.0" xmlns="http://www.w3.org/2000/svg"  width="275.000000pt" height="275.000000pt" viewBox="0 0 275.000000 275.000000"  preserveAspectRatio="xMidYMid meet">  <g transform="translate(0.000000,275.000000) scale(0.100000,-0.100000)" fill="#bc1e2d" stroke="none"> <path d="M1470 2365 l0 -127 -29 -29 c-21 -21 -39 -29 -65 -29 -94 0 -116 35 -116 190 0 60 -3 110 -6 110 -19 0 -69 -49 -94 -93 -24 -42 -30 -64 -30 -113 0 -80 18 -121 85 -194 37 -40 55 -69 56 -87 1 -16 2 -191 3 -389 1 -334 2 -363 19 -382 36 -40 134 -35 157 8 6 11 10 166 10 389 0 217 4 380 10 395 5 15 32 49 60 78 102 104 103 259 3 349 -67 60 -63 65 -63 -76z"/> <path d="M1704 2072 c-6 -4 -29 -33 -53 -64 -23 -32 -48 -58 -56 -58 -12 0 -15 -21 -15 -119 l0 -118 45 -36 c25 -19 59 -52 77 -73 157 -195 102 -502 -113 -631 -171 -102 -372 -78 -519 63 -169 161 -173 426 -10 599 29 30 61 57 71 60 17 6 19 18 19 131 0 114 -2 124 -18 124 -11 0 -38 25 -65 60 -31 39 -54 60 -68 60 -33 0 -208 -131 -209 -156 0 -12 20 -49 44 -82 l45 -60 -31 -41 c-16 -23 -35 -41 -42 -41 -7 0 -40 9 -73 21 -85 28 -92 23 -132 -104 -44 -142 -43 -146 47 -177 l72 -25 0 -55 0 -56 -71 -23 c-38 -12 -73 -29 -76 -38 -6 -15 53 -219 70 -240 13 -17 55 -16 107 2 60 21 65 20 99 -26 l30 -42 -39 -56 c-22 -31 -40 -66 -40 -78 0 -28 191 -167 218 -159 10 4 37 33 60 65 l42 60 52 -18 53 -18 2 -72 c1 -40 7 -79 14 -87 9 -11 41 -14 135 -14 145 0 144 -1 144 108 l0 69 43 17 c23 9 47 16 53 16 6 0 30 -27 53 -60 28 -40 49 -60 63 -60 19 0 194 120 210 144 12 17 10 21 -37 91 l-46 66 20 32 c12 18 24 37 29 44 6 9 26 7 82 -11 52 -17 80 -21 92 -15 21 11 91 224 83 250 -4 11 -35 27 -85 44 l-80 27 0 52 0 52 75 22 c46 14 78 29 84 41 8 14 2 45 -26 127 -19 60 -42 116 -49 124 -12 12 -24 11 -96 -13 l-83 -27 -17 23 c-44 57 -44 62 -1 119 71 95 72 91 -61 187 -83 60 -101 68 -122 53z"/> </g> </svg> 